<?xml version="1.0" encoding="utf-8"?>
<!-- Generator: Adobe Illustrator 24.1.3, SVG Export Plug-In . SVG Version: 6.00 Build 0)  -->
<svg version="1.1" id="Capa_1" xmlns="http://www.w3.org/2000/svg" xmlns:xlink="http://www.w3.org/1999/xlink" x="0px" y="0px"
	 viewBox="0 0 300 107" style="enable-background:new 0 0 300 107;" xml:space="preserve">
<style type="text/css">
	.st0{fill:#59595B;}
	.st1{fill:#934E70;}
	.st2{fill:#08C6D2;}
	.st3{fill:#153C5C;}
</style>
<path class="st0" d="M77.5,46c1.8,0,3.4,0.1,5.3,0.7c1.4,0.4,1.8,1,1.8,1.9c0,1-0.4,2.2-1.1,2.2c-0.6,0-2.6-1.3-5.9-1.3
	c-4.2,0-6.9,2.9-6.9,10c0,7.1,2.7,10.1,6.9,10.1c3.2,0,5.6-1.4,6.2-1.4c0.6,0,1.1,1.2,1.1,2.1c0,1-0.4,1.5-1.8,1.9
	c-1.9,0.5-3.7,0.8-5.6,0.8c-6.7,0-11.1-4.2-11.1-13.6C66.4,50.1,70.9,46,77.5,46"/>
<path class="st0" d="M91.8,59.5c0-9.4,4.1-13.5,11.1-13.5c7,0,11.1,4.1,11.1,13.5c0,9.4-4.1,13.6-11.1,13.6
	C95.9,73.1,91.8,68.9,91.8,59.5 M109.6,59.5c0-7.1-2.5-10-6.8-10c-4.3,0-6.7,2.9-6.7,10c0,7.1,2.4,10.1,6.7,10.1
	C107.2,69.7,109.6,66.6,109.6,59.5z"/>
<path class="st0" d="M142.3,47.4v24.4c0,1-0.5,1.1-1.9,1.1c-1.4,0-1.7-0.1-1.8-0.7c-1.8-6.8-6.8-15.2-11.9-19.6v19.3
	c0,1-0.5,1.1-2.1,1.1c-1.5,0-2.1-0.1-2.1-1.1V47.4c0-1,0.4-1.1,1.8-1.1c0.8,0,1.2,0.1,1.7,0.5c4.7,3.7,9.2,9.3,12.1,14.7V47.4
	c0-1,0.5-1.1,2.1-1.1C141.8,46.3,142.3,46.4,142.3,47.4"/>
<path class="st0" d="M160.4,49.7c-3.4,0-4.5,1.5-4.5,3.6c0,2,1.5,3.1,5.3,4.1c5.2,1.2,8,3.4,8,7.9c0,4.5-3.6,7.9-9.8,7.9
	c-2.5,0-4.6-0.4-6.4-1c-1.4-0.5-1.7-1.2-1.7-2.1c0-1,0.4-2.2,1.2-2.2c0.9,0,3.1,1.7,7,1.7c3.6,0,5.2-1.5,5.2-3.8
	c0-2.2-1.4-3.5-5.7-4.5c-4.8-1.1-7.5-3.4-7.5-7.4c0-4.2,2.8-7.7,9-7.7c2.1,0,3.8,0.2,5.6,0.7c1.4,0.4,1.8,1.1,1.8,2
	c0,1-0.4,2.2-1.2,2.2C165.8,51,163.9,49.7,160.4,49.7"/>
<path class="st0" d="M195.4,48.2c0,1.4-0.1,1.8-1,1.8h-7.6v21.8c0,1-0.5,1.1-2.1,1.1c-1.6,0-2.1-0.1-2.1-1.1V50H175
	c-0.8,0-1-0.4-1-1.8c0-1.4,0.1-1.8,1-1.8h19.4C195.3,46.4,195.4,46.8,195.4,48.2"/>
<path class="st0" d="M219.3,71c0,1.3-0.1,1.7-1,1.7h-14.5c-0.7,0-1-0.4-1-1V47.4c0-0.7,0.4-1,1-1h14.3c0.8,0,1,0.4,1,1.7
	c0,1.3-0.1,1.7-1,1.7h-11.1v7.5h8.6c0.8,0,1,0.4,1,1.8c0,1.3-0.1,1.7-1,1.7h-8.6v8.5h11.3C219.2,69.3,219.3,69.7,219.3,71"/>
<path class="st0" d="M227.6,71.7V47.4c0-1,0.5-1.1,2.1-1.1c1.6,0,2.1,0.1,2.1,1.1v21.8h10.5c0.8,0,1,0.4,1,1.8c0,1.4-0.1,1.8-1,1.8
	h-13.7C228,72.8,227.6,72.4,227.6,71.7"/>
<path class="st0" d="M271,71.7c0,1-0.5,1.1-2.2,1.1c-1.6,0-2.1-0.1-2.1-1.1c-0.1-1.7-0.2-3.5-0.4-5.2h-11.4
	c-0.2,1.7-0.4,3.5-0.4,5.2c0,1-0.5,1.1-2.2,1.1c-1.6,0-2.2-0.1-2.2-1.1c0-7,3-18.3,7.8-24.5c0.6-0.8,1.1-0.9,2.6-0.9
	c1.5,0,2,0.1,2.6,0.9C268,53.4,271,64.7,271,71.7 M265.7,63.1c-1-4.9-2.7-9.5-5.2-13.3c-2.5,3.8-4.1,8.3-5.1,13.3H265.7z"/>
<path class="st0" d="M280.1,71.8V47.4c0-0.7,0.4-1,1-1h7.6c6.2,0,9.7,2.4,9.7,7.4c0,4.7-3.2,6.8-6.8,7.4v0.1c1,0.3,2,1,2.9,1.8
	c2.4,2.3,4.2,5.7,4.6,8.5c0.1,1-0.7,1.1-2.3,1.1c-1.6,0-2.1-0.1-2.4-1.1c-0.9-3.4-2.4-6.1-4.5-8c-1.1-1-1.8-1.2-2.8-1.2h-2.7v9.3
	c0,1-0.5,1.1-2.1,1.1C280.6,72.8,280.1,72.7,280.1,71.8 M288.1,59.1c3.2,0,5.9-1.3,5.9-4.8c0-3-1.9-4.5-5.3-4.5h-4.5v9.3H288.1z"/>
<path class="st1" d="M7.2,63.4L7.2,63.4c0.9,0.4,1.7,0.8,2.6,1.2l0,0c1,0.5,1.9,1,2.8,1.6c6.9,4.2,12.6,10.5,15.9,18.5
	c2.4,5.8,3.3,11.8,2.9,17.7l0,0c0,0.3,0,0.7-0.1,1c0,0.5,0.1,1,0.3,1.5c0.5,1.3,1.6,2.1,2.8,2.5c0.3,0.1,0.7,0.1,1,0.1h0
	c0.5,0,1.1-0.1,1.6-0.3c0.4-0.2,0.8-0.4,1.1-0.7l0.1,0.1c9.5-7.5,15-19,15-31c0-5-1-10-3-14.9c-6.1-14.7-20.1-23.7-35-24.2l0,0
	c-2.1-0.1-4.3,0.2-6.3,1.1c-2.6,1.1-4.8,2.9-6.3,5.1c-2.7,3.9-3.4,9.1-1.5,13.8C2.4,59.5,4.6,61.8,7.2,63.4"/>
<path class="st2" d="M52.7,69c-0.5-2.8-1.3-5.7-2.4-8.4c-3.9-9.4-11.1-16.5-19.7-20.5c0.1-4.7,1-9.4,2.9-13.9
	c6-14.7,19.9-23.9,34.8-24.4l0,0c0.3,0,0.5,0,0.8,0h0h0.2c1.8,0,3.6,0.4,5.3,1.1c2.7,1.1,4.8,2.9,6.4,5.1c2.7,3.9,3.5,9,1.6,13.8
	c-1.2,3.1-3.4,5.5-6,7l0,0c-0.9,0.4-1.7,0.8-2.5,1.2l0,0c-0.9,0.5-1.9,1-2.8,1.6C64.3,35.6,58.7,41.9,55.4,50
	c-2.4,5.8-3.2,11.9-2.8,17.7l0,0c0,0.3,0.1,0.7,0.1,1C52.7,68.8,52.7,68.9,52.7,69"/>
<path class="st1" d="M48.5,72.8c-0.5,0-1.1-0.1-1.6-0.3c-0.4-0.2-0.8-0.4-1.1-0.6l-0.1,0.1C36.2,64.5,30.6,53,30.5,41
	c0-0.3,0-0.7,0-1c8.6,4,15.8,11.1,19.7,20.5c1.1,2.8,2,5.6,2.4,8.4c0,0.4-0.1,0.8-0.3,1.1c-0.5,1.3-1.6,2.2-2.8,2.5
	C49.2,72.7,48.9,72.8,48.5,72.8"/>
<path class="st3" d="M48.5,72.8c-0.5,0-1.1-0.1-1.6-0.3c-0.4-0.2-0.8-0.4-1.1-0.6l-0.1,0.1C36.2,64.5,30.6,53,30.5,41
	c0-0.3,0-0.7,0-1c8.6,4,15.8,11.1,19.7,20.5c1.1,2.8,2,5.6,2.4,8.4c0,0.4-0.1,0.8-0.3,1.1c-0.5,1.3-1.6,2.2-2.8,2.5
	C49.2,72.7,48.9,72.8,48.5,72.8"/>
</svg>
