<?xml version="1.0" encoding="utf-8"?>
<!-- Generator: Adobe Illustrator 24.1.3, SVG Export Plug-In . SVG Version: 6.00 Build 0)  -->
<svg version="1.1" id="Capa_1" xmlns="http://www.w3.org/2000/svg" xmlns:xlink="http://www.w3.org/1999/xlink" x="0px" y="0px"
	 viewBox="0 0 300 108" style="enable-background:new 0 0 300 108;" xml:space="preserve">
<style type="text/css">
	.st0{fill:#FFFFFF;}
	.st1{opacity:0.5;fill:#FFFFFF;}
</style>
<path class="st0" d="M79.9,46.1c1.7,0,3.3,0.1,5.2,0.7c1.3,0.4,1.8,1,1.8,1.9c0,0.9-0.4,2.1-1.1,2.1c-0.6,0-2.5-1.3-5.8-1.3
	c-4.1,0-6.8,2.9-6.8,9.8c0,7,2.7,10,6.8,10c3.2,0,5.5-1.3,6.1-1.3c0.6,0,1,1.2,1,2.1c0,0.9-0.4,1.5-1.7,1.9
	c-1.9,0.5-3.7,0.8-5.5,0.8c-6.6,0-11-4.1-11-13.4C69,50.1,73.4,46.1,79.9,46.1"/>
<path class="st0" d="M111.6,59.4L111.6,59.4c0-7-2.4-9.8-6.7-9.8c-4.3,0-6.6,2.9-6.6,9.8c0,7,2.4,10,6.6,10
	C109.1,69.4,111.6,66.3,111.6,59.4 M94,59.4c0-9.3,4.1-13.3,10.9-13.3c6.9,0,10.9,4,10.9,13.3c0,9.3-4.1,13.4-10.9,13.4
	C98,72.8,94,68.6,94,59.4z"/>
<path class="st0" d="M143.8,47.4v24c0,0.9-0.5,1-1.8,1c-1.3,0-1.7-0.1-1.8-0.7c-1.7-6.7-6.7-15-11.7-19.3v19c0,0.9-0.5,1-2,1
	c-1.5,0-2-0.1-2-1v-24c0-0.9,0.4-1,1.7-1c0.8,0,1.2,0.1,1.7,0.5c4.7,3.6,9.1,9.2,11.9,14.5V47.4c0-0.9,0.5-1,2-1
	S143.8,46.5,143.8,47.4"/>
<path class="st0" d="M161.6,49.7c-3.4,0-4.5,1.5-4.5,3.5c0,1.9,1.4,3.1,5.2,4c5.2,1.2,7.9,3.4,7.9,7.8c0,4.5-3.5,7.8-9.7,7.8
	c-2.4,0-4.5-0.4-6.3-1c-1.3-0.5-1.7-1.2-1.7-2.1c0-1,0.4-2.2,1.2-2.2c0.9,0,3,1.7,6.9,1.7c3.6,0,5.1-1.5,5.1-3.8
	c0-2.1-1.3-3.5-5.7-4.5c-4.7-1.1-7.4-3.4-7.4-7.3c0-4.1,2.8-7.6,8.9-7.6c2.1,0,3.8,0.2,5.5,0.7c1.3,0.4,1.7,1,1.7,2
	c0,1-0.4,2.2-1.2,2.2C166.9,51,165,49.7,161.6,49.7"/>
<path class="st0" d="M196,48.3c0,1.3-0.1,1.8-0.9,1.8h-7.5v21.4c0,0.9-0.5,1-2.1,1c-1.6,0-2.1-0.1-2.1-1V50h-7.5
	c-0.8,0-0.9-0.4-0.9-1.8c0-1.4,0.1-1.8,0.9-1.8h19.1C195.9,46.5,196,46.9,196,48.3"/>
<path class="st0" d="M219.6,70.7c0,1.3-0.1,1.7-0.9,1.7h-14.3c-0.6,0-1-0.4-1-1V47.5c0-0.6,0.4-1,1-1h14.1c0.8,0,0.9,0.4,0.9,1.7
	c0,1.3-0.1,1.7-0.9,1.7h-10.9v7.4h8.5c0.8,0,0.9,0.4,0.9,1.7c0,1.3-0.1,1.7-0.9,1.7h-8.5V69h11.1C219.4,69,219.6,69.4,219.6,70.7"/>
<path class="st0" d="M227.7,71.4v-24c0-0.9,0.5-1,2.1-1c1.6,0,2.1,0.1,2.1,1v21.4h10.3c0.8,0,0.9,0.4,0.9,1.8c0,1.4-0.1,1.8-0.9,1.8
	h-13.5C228.1,72.4,227.7,72.1,227.7,71.4"/>
<path class="st0" d="M265.2,62.9L265.2,62.9c-1-4.8-2.7-9.3-5.1-13.1c-2.4,3.7-4.1,8.2-5,13.1H265.2z M270.4,71.4
	c0,1-0.5,1.1-2.1,1.1c-1.6,0-2.1-0.1-2.1-1.1c-0.1-1.7-0.2-3.4-0.4-5.1h-11.2c-0.2,1.7-0.4,3.4-0.4,5.1c0,1-0.5,1.1-2.1,1.1
	c-1.6,0-2.1-0.1-2.1-1.1c0-6.9,2.9-18.1,7.7-24.2c0.6-0.8,1.1-0.9,2.6-0.9c1.5,0,2,0.1,2.6,0.9C267.5,53.3,270.4,64.5,270.4,71.4z"
	/>
<path class="st0" d="M287.3,59L287.3,59c3.2,0,5.8-1.3,5.8-4.7c0-3-1.8-4.4-5.2-4.4h-4.4V59H287.3z M279.3,71.4v-24c0-0.6,0.4-1,1-1
	h7.5c6.1,0,9.5,2.4,9.5,7.3c0,4.7-3.2,6.7-6.7,7.3v0.1c1,0.3,2,1,2.8,1.8c2.4,2.3,4.1,5.6,4.5,8.4c0.1,1-0.6,1.1-2.2,1.1
	c-1.6,0-2.1-0.1-2.3-1.1c-0.9-3.4-2.4-6-4.5-7.9c-1-0.9-1.7-1.2-2.8-1.2h-2.6v9.1c0,0.9-0.5,1-2.1,1
	C279.8,72.5,279.3,72.4,279.3,71.4z"/>
<path class="st1" d="M52.4,71.4c-0.8,0.2-1.7,0.2-2.6-0.2c-0.4-0.2-0.7-0.4-1.1-0.6l-0.1,0.1c-9.4-7.2-14.8-18.5-14.9-30.2
	c0-0.3,0-0.6,0-0.9c-4.7-2.2-9.8-3.4-15-3.6l0,0c-2.1-0.1-4.2,0.2-6.2,1.1c-2.6,1.1-4.7,2.8-6.2,5c-2.7,3.8-3.4,8.9-1.4,13.5
	c1.2,3,3.4,5.3,6,6.8l0,0c0.8,0.3,1.7,0.7,2.5,1.1c0,0,0,0,0,0c0.9,0.5,1.8,1,2.7,1.5c6.7,4.1,12.3,10.2,15.5,18.1
	c2.3,5.7,3.2,11.6,2.9,17.3c0,0,0,0,0,0c0,0.3,0,0.6-0.1,1c0,0.5,0.1,1,0.3,1.4c0.5,1.2,1.6,2.1,2.8,2.4c0.8,0.2,1.7,0.2,2.6-0.2
	c0.4-0.2,0.7-0.4,1.1-0.6l0.1,0.1c9.3-7.3,14.7-18.6,14.6-30.3c0-2.1-0.2-4.2-0.6-6.3c0,0.4-0.1,0.8-0.2,1.1
	C54.7,70.2,53.6,71.1,52.4,71.4"/>
<path class="st1" d="M83.1,8c-1.5-2.1-3.6-3.9-6.2-4.9c-2-0.8-4.1-1.1-6.2-1l0,0c-14.6,0.6-28.1,9.5-34,23.9
	c-1.8,4.5-2.7,9.1-2.8,13.6c8.4,3.9,15.4,10.8,19.2,20c1.1,2.7,1.9,5.4,2.3,8.2c0-0.1,0.1-0.2,0.1-0.3c0-0.3-0.1-0.7-0.1-1
	c0,0,0,0,0,0c-0.4-5.7,0.4-11.6,2.7-17.3c3.2-7.9,8.7-14.1,15.4-18.2c0.9-0.5,1.8-1.1,2.7-1.5c0,0,0,0,0,0c0.8-0.4,1.6-0.8,2.5-1.2
	l0,0c2.6-1.5,4.7-3.9,5.9-6.9C86.5,16.9,85.8,11.8,83.1,8"/>
<path class="st0" d="M53.1,59.6c-3.8-9.2-10.8-16.1-19.2-20c0,0.3,0,0.6,0,0.9c0,11.7,5.5,22.9,14.9,30.2l0.1-0.1
	c0.3,0.3,0.7,0.5,1.1,0.6c0.9,0.3,1.8,0.4,2.6,0.2c1.2-0.3,2.3-1.2,2.8-2.4c0.2-0.4,0.2-0.8,0.2-1.1C55,65.1,54.2,62.3,53.1,59.6"/>
</svg>
