<?xml version="1.0" encoding="utf-8"?>
<!-- Generator: Adobe Illustrator 24.1.3, SVG Export Plug-In . SVG Version: 6.00 Build 0)  -->
<svg version="1.1" id="Capa_1" xmlns="http://www.w3.org/2000/svg" xmlns:xlink="http://www.w3.org/1999/xlink" x="0px" y="0px"
	 viewBox="0 0 331 136" style="enable-background:new 0 0 331 136;" xml:space="preserve">
<style type="text/css">
	.st0{fill-rule:evenodd;clip-rule:evenodd;fill:#FFFFFF;}
	.st1{fill:#FFFFFF;}
</style>
<g>
	<g>
		<g>
			<path class="st0" d="M63.21,90.93c0-4.76-1.93-8.91-5.72-12.47c-3.85-3.55-8.26-5.31-13.26-5.31c-5.41,0-10.04,1.76-13.86,5.31
				c-3.8,3.56-5.71,7.96-5.71,13.22c0,4.99,1.91,9.22,5.71,12.65c3.78,3.44,8.35,5.17,13.68,5.17c5.14,0,9.63-1.82,13.44-5.43
				C61.28,100.41,63.21,96.05,63.21,90.93L63.21,90.93z M63.21,106.56c-2.02,2.6-4.74,4.62-8.18,6.08
				c-3.47,1.45-7.19,2.19-11.15,2.19c-7.41,0-13.61-2.26-18.53-6.75c-4.95-4.5-7.4-10.05-7.4-16.66c0-6.72,2.52-12.34,7.59-16.86
				c5.01-4.51,11.32-6.77,18.9-6.77c3.88,0,7.42,0.71,10.67,2.1c3.27,1.41,5.96,3.43,8.11,6.06v-4.72c0-0.92,0.93-2.46,2.77-2.46
				h0.77c1.81,0,2.81,1.47,2.81,2.48v39.94c0,0.9-1.3,2.48-2.81,2.48h-0.76c-1.37,0-2.77-1.56-2.77-2.46V106.56L63.21,106.56z
				 M82.53,68.78h0.76c1.62,0,2.78,1.65,2.78,2.48v2.62c1.99-2.03,4.3-3.54,6.93-4.52c2.61-1,5.61-1.48,8.97-1.48
				c3.69,0,7.02,0.63,9.91,1.84c2.89,1.24,5.18,2.98,6.86,5.26c1.15,1.6,2,3.48,2.5,5.65c0.52,2.15,0.76,5.36,0.76,9.57v21
				c0,0.98-1.35,2.46-2.77,2.46h-0.82c-1.42,0-2.79-1.47-2.79-2.46V88.54c0-5.3-1.13-9.14-3.41-11.55c-2.3-2.41-5.95-3.6-10.95-3.6
				c-2.95,0-5.54,0.54-7.76,1.59c-2.2,1.04-3.94,2.55-5.24,4.49c-0.79,1.23-1.36,2.62-1.67,4.2c-0.37,1.55-0.5,4.28-0.5,8.16v19.36
				c0,0.92-1.34,2.48-2.78,2.48h-0.74c-1.43,0-2.75-1.46-2.75-2.48V71.26C79.8,70.15,80.87,68.78,82.53,68.78L82.53,68.78z
				 M174.96,91.68c0-5.1-1.9-9.51-5.73-13.1c-3.79-3.6-8.27-5.43-13.41-5.43c-5.32,0-9.89,1.72-13.68,5.15
				c-3.79,3.47-5.73,7.66-5.73,12.63c0,5.26,1.94,9.65,5.74,13.2c3.8,3.58,8.42,5.36,13.82,5.36c5.02,0,9.43-1.78,13.25-5.36
				C173.06,100.58,174.96,96.44,174.96,91.68L174.96,91.68z M174.78,75.89V65.87v-9.16c0-1.35,1.34-2.47,2.77-2.47h0.99
				c1.47,0,2.77,1.02,2.77,2.47v54.5c0,0.9-1.31,2.46-2.77,2.46h-0.95c-1.46,0-2.81-1.54-2.81-2.46v-4.32
				c-2.27,2.49-5.07,4.45-8.46,5.85c-3.37,1.41-6.92,2.1-10.73,2.1c-7.26,0-13.4-2.26-18.38-6.85c-5-4.56-7.5-10.18-7.5-16.8
				c0-6.6,2.46-12.13,7.41-16.63c4.92-4.5,11.1-6.76,18.46-6.76c4.01,0,7.62,0.68,10.91,2.05
				C169.76,71.24,172.51,73.23,174.78,75.89L174.78,75.89z M234.23,90.93c0-4.76-1.93-8.91-5.73-12.47
				c-3.86-3.55-8.27-5.31-13.25-5.31c-5.44,0-10.03,1.76-13.84,5.31c-3.82,3.56-5.72,7.96-5.72,13.22c0,4.99,1.87,9.22,5.67,12.65
				c3.81,3.44,8.38,5.17,13.7,5.17c5.15,0,9.61-1.82,13.45-5.43C232.31,100.41,234.23,96.05,234.23,90.93L234.23,90.93z
				 M234.23,106.56c-2.02,2.6-4.75,4.62-8.19,6.08c-3.44,1.45-7.18,2.19-11.16,2.19c-7.42,0-13.61-2.26-18.51-6.75
				c-4.94-4.5-7.41-10.05-7.41-16.66c0-6.72,2.53-12.34,7.55-16.86c5.06-4.51,11.36-6.77,18.95-6.77c3.87,0,7.41,0.71,10.66,2.1
				c3.27,1.41,5.95,3.43,8.11,6.06v-4.67c0-1.46,1.38-2.5,2.74-2.5h0.85c1.73,0,2.72,1,2.72,2.44v39.97c0,1.39-1.28,2.48-2.76,2.48
				h-0.82c-1.31,0-2.74-1.03-2.74-2.45V106.56L234.23,106.56z M250.9,111.21V56.7c0-1.4,1.34-2.46,2.76-2.46h0.93
				c1.46,0,2.78,1.2,2.78,2.43v54.53c0,1.37-1.31,2.46-2.78,2.46h-0.92C252.22,113.67,250.9,112.44,250.9,111.21z"/>
		</g>
	</g>
	<g>
		<g>
			<path class="st1" d="M38.08,30.56l-0.93,0.89c-0.57,0.54-1.43,0.51-2.02,0c-1.79-1.52-3.75-2.28-5.9-2.28
				c-2.16,0-3.98,0.74-5.46,2.22c-1.48,1.48-2.22,3.3-2.22,5.46c0,1.51,0.33,2.85,0.98,4.02c0.66,1.17,1.58,2.09,2.78,2.76
				c1.2,0.67,2.53,1,3.99,1c1.25,0,2.39-0.23,3.42-0.7c0.75-0.34,1.56-0.88,2.42-1.63c0.58-0.5,1.46-0.43,1.98,0.12l0.88,0.92
				c0.57,0.59,0.55,1.57-0.07,2.11c-1.26,1.09-2.47,1.88-3.63,2.37c-1.49,0.63-3.18,0.95-5.09,0.95c-3.52,0-6.39-1.11-8.63-3.34
				c-2.24-2.23-3.36-5.09-3.36-8.57c0-2.26,0.51-4.26,1.53-6.01c1.02-1.75,2.48-3.16,4.38-4.23c1.9-1.07,3.95-1.6,6.14-1.6
				c1.86,0,3.66,0.39,5.39,1.18c1.23,0.56,2.34,1.29,3.33,2.19C38.67,28.96,38.71,29.96,38.08,30.56z"/>
			<path class="st1" d="M50.32,31.02c1.58,0,3.06,0.39,4.45,1.18c1.39,0.79,2.47,1.86,3.25,3.21c0.78,1.35,1.17,2.81,1.17,4.38
				c0,1.58-0.39,3.05-1.18,4.43c-0.78,1.37-1.85,2.45-3.21,3.22c-1.5,0.86-3.17,1.24-5.01,1.15c-1.91-0.1-3.77-0.87-5.19-2.15
				c-2.16-1.95-3.14-4.41-2.93-7.39c0.14-2.01,1.02-3.95,2.45-5.38C45.89,31.91,47.96,31.02,50.32,31.02z M50.38,34.97
				c-1.3,0-2.39,0.45-3.26,1.36s-1.3,2.07-1.3,3.48c0,1.46,0.43,2.63,1.29,3.54c0.86,0.9,1.94,1.35,3.26,1.35s2.41-0.46,3.28-1.37
				c0.87-0.91,1.31-2.09,1.31-3.52c0-1.43-0.43-2.6-1.29-3.5C52.82,35.42,51.72,34.97,50.38,34.97z"/>
			<path class="st1" d="M62.62,34.84c0-1.87,1.52-3.39,3.39-3.39h0.81v1.71c0.95-0.8,1.81-1.36,2.59-1.67
				c0.77-0.31,1.56-0.47,2.37-0.47c1.66,0,3.07,0.58,4.22,1.74c0.97,0.98,1.46,2.44,1.46,4.37v9.34c0,0.95-0.77,1.71-1.71,1.71
				h-0.73c-0.95,0-1.71-0.77-1.71-1.71v-5.61c0-2-0.09-3.32-0.27-3.98c-0.18-0.66-0.49-1.15-0.94-1.5
				c-0.45-0.34-0.99-0.51-1.65-0.51c-0.85,0-1.58,0.28-2.19,0.85c-0.61,0.57-1.03,1.35-1.27,2.36c-0.12,0.52-0.18,1.65-0.18,3.39v5
				c0,0.95-0.77,1.71-1.71,1.71h-0.77c-0.95,0-1.71-0.77-1.71-1.71V34.84z"/>
			<path class="st1" d="M91.75,33.79l-2.6,2.6c-1.06-1.05-2.01-1.57-2.88-1.57c-0.47,0-0.84,0.1-1.11,0.3
				c-0.27,0.2-0.4,0.45-0.4,0.75c0,0.23,0.08,0.43,0.25,0.62c0.17,0.19,0.59,0.45,1.25,0.78l1.54,0.77c1.62,0.8,2.73,1.61,3.34,2.44
				c0.6,0.83,0.91,1.8,0.91,2.92c0,1.49-0.55,2.73-1.64,3.72c-1.09,0.99-2.55,1.49-4.39,1.49c-0.53,0-1.03-0.04-1.52-0.13
				c-2.54-0.47-3.49-3.64-1.74-5.54v0c0.49,0.57,1.07,1.04,1.73,1.39c0.66,0.35,1.25,0.53,1.76,0.53c0.55,0,1-0.13,1.34-0.4
				c0.34-0.27,0.51-0.57,0.51-0.92c0-0.65-0.61-1.28-1.83-1.89l-1.41-0.71c-2.71-1.36-4.06-3.07-4.06-5.12
				c0-1.32,0.51-2.45,1.53-3.39c1.02-0.94,2.32-1.41,3.91-1.41c1.09,0,2.11,0.24,3.07,0.71C90.27,32.21,91.08,32.9,91.75,33.79z"/>
			<path class="st1" d="M97.61,25.29h0.71c0.96,0,1.74,0.78,1.74,1.74v4.42h2.49v3.61h-2.49v11.37c0,0.96-0.78,1.74-1.74,1.74h-0.71
				c-0.96,0-1.74-0.78-1.74-1.74V35.06h-2.15v-3.61h2.15v-4.42C95.87,26.07,96.65,25.29,97.61,25.29z"/>
			<path class="st1" d="M121.56,41.03h-13.48c0.19,1.19,0.71,2.13,1.56,2.84c0.84,0.7,1.92,1.05,3.24,1.05c0.94,0,1.8-0.2,2.58-0.59
				c1.05-0.53,2.25-0.68,3.32-0.18l1.68,0.79c-0.88,1.25-1.94,2.18-3.17,2.78c-1.23,0.6-2.69,0.9-4.38,0.9
				c-2.62,0-4.76-0.83-6.41-2.48s-2.47-3.73-2.47-6.22c0-2.55,0.82-4.67,2.47-6.36c1.65-1.69,3.71-2.53,6.19-2.53
				c2.63,0,4.78,0.84,6.43,2.53c1.65,1.69,2.48,3.91,2.48,6.68L121.56,41.03z M117.36,37.72c-0.28-0.93-0.82-1.69-1.64-2.28
				c-0.82-0.58-1.76-0.88-2.84-0.88c-1.17,0-2.2,0.33-3.08,0.98c-0.55,0.41-1.07,1.13-1.54,2.17H117.36z"/>
			<path class="st1" d="M126.12,24.99h0.95c0.9,0,1.62,0.73,1.62,1.62v19.93c0,0.9-0.73,1.62-1.62,1.62h-0.95
				c-0.9,0-1.62-0.73-1.62-1.62V26.62C124.49,25.72,125.22,24.99,126.12,24.99z"/>
			<path class="st1" d="M144.85,31.45h0.57c2,0,3.62,1.62,3.62,3.62v9.48c0,2-1.62,3.62-3.62,3.62h-0.57v-1.77
				c-0.82,0.78-1.64,1.34-2.47,1.68c-0.82,0.34-1.72,0.51-2.68,0.51c-2.16,0-4.03-0.84-5.61-2.51c-1.58-1.68-2.36-3.76-2.36-6.25
				c0-2.58,0.76-4.7,2.29-6.35c1.53-1.65,3.38-2.47,5.56-2.47c1,0,1.95,0.19,2.82,0.57c0.88,0.38,1.7,0.95,2.44,1.71V31.45z
				 M140.44,34.89c-1.3,0-2.37,0.46-3.23,1.38s-1.29,2.09-1.29,3.53c0,1.45,0.44,2.63,1.31,3.57c0.87,0.93,1.95,1.4,3.23,1.4
				c1.32,0,2.41-0.46,3.28-1.38c0.87-0.92,1.3-2.12,1.3-3.61c0-1.46-0.43-2.63-1.3-3.54C142.86,35.34,141.76,34.89,140.44,34.89z"/>
			<path class="st1" d="M169.66,34.83l-3.49,1.92c-0.66-0.69-1.31-1.16-1.95-1.43c-0.64-0.27-1.39-0.4-2.26-0.4
				c-1.57,0-2.84,0.47-3.81,1.4c-0.97,0.94-1.45,2.14-1.45,3.6c0,1.42,0.47,2.58,1.4,3.49c0.93,0.9,2.16,1.35,3.68,1.35
				c1.88,0,3.34-0.64,4.39-1.92l3.31,2.27c-1.79,2.33-4.33,3.5-7.59,3.5c-2.94,0-5.25-0.87-6.91-2.61c-1.67-1.74-2.5-3.78-2.5-6.12
				c0-1.62,0.4-3.11,1.21-4.47c0.81-1.36,1.94-2.43,3.39-3.21c1.45-0.78,3.07-1.17,4.87-1.17c1.66,0,3.15,0.33,4.47,0.99
				C167.74,32.67,168.82,33.61,169.66,34.83z"/>
			<path class="st1" d="M175.08,24.56c0.74,0,1.37,0.27,1.89,0.8c0.53,0.53,0.79,1.18,0.79,1.94c0,0.75-0.26,1.39-0.78,1.91
				c-0.52,0.53-1.14,0.79-1.87,0.79c-0.75,0-1.38-0.27-1.91-0.81c-0.53-0.54-0.79-1.19-0.79-1.96c0-0.74,0.26-1.37,0.78-1.89
				C173.72,24.82,174.34,24.56,175.08,24.56z M174.45,31.45h1.25c0.81,0,1.47,0.66,1.47,1.47v13.78c0,0.81-0.66,1.47-1.47,1.47
				h-1.25c-0.81,0-1.47-0.66-1.47-1.47V32.92C172.98,32.11,173.64,31.45,174.45,31.45z"/>
			<path class="st1" d="M188.85,31.02c1.58,0,3.06,0.39,4.45,1.18c1.39,0.79,2.47,1.86,3.25,3.21c0.78,1.35,1.17,2.81,1.17,4.38
				c0,1.58-0.39,3.05-1.18,4.43c-0.78,1.37-1.85,2.45-3.21,3.22c-1.5,0.86-3.17,1.24-5.01,1.15c-1.91-0.1-3.77-0.87-5.19-2.15
				c-2.16-1.95-3.14-4.41-2.93-7.39c0.14-2.01,1.02-3.95,2.45-5.38C184.42,31.91,186.49,31.02,188.85,31.02z M188.92,34.97
				c-1.3,0-2.39,0.45-3.26,1.36c-0.87,0.91-1.3,2.07-1.3,3.48c0,1.46,0.43,2.63,1.29,3.54c0.86,0.9,1.94,1.35,3.26,1.35
				c1.31,0,2.41-0.46,3.28-1.37c0.87-0.91,1.31-2.09,1.31-3.52c0-1.43-0.43-2.6-1.29-3.5C191.35,35.42,190.25,34.97,188.92,34.97z"
				/>
			<path class="st1" d="M201.15,33.13c0-0.93,0.75-1.68,1.68-1.68h2.52v1.71c0.95-0.8,1.81-1.36,2.59-1.67
				c0.77-0.31,1.56-0.47,2.37-0.47c1.66,0,3.07,0.58,4.22,1.74c0.97,0.98,1.46,2.44,1.46,4.37v9.38c0,0.93-0.75,1.68-1.68,1.68
				h-0.79c-0.93,0-1.68-0.75-1.68-1.68v-5.65c0-2-0.09-3.32-0.27-3.98c-0.18-0.66-0.49-1.15-0.94-1.5
				c-0.45-0.34-0.99-0.51-1.65-0.51c-0.85,0-1.58,0.28-2.19,0.85c-0.61,0.57-1.03,1.35-1.27,2.36c-0.12,0.52-0.18,1.65-0.18,3.39
				v5.03c0,0.93-0.75,1.68-1.68,1.68h-0.84c-0.93,0-1.68-0.75-1.68-1.68V33.13z"/>
			<path class="st1" d="M236.8,41.03h-13.48c0.19,1.19,0.71,2.13,1.56,2.84c0.84,0.7,1.92,1.05,3.24,1.05
				c1.25,0,2.37-0.35,3.34-1.05c0.51-0.37,1.19-0.36,1.76-0.1l2.48,1.16c-0.88,1.25-1.94,2.18-3.17,2.78
				c-1.23,0.6-2.69,0.9-4.38,0.9c-2.62,0-4.76-0.83-6.41-2.48c-1.65-1.65-2.47-3.73-2.47-6.22c0-2.55,0.82-4.67,2.47-6.36
				c1.65-1.69,3.71-2.53,6.19-2.53c2.63,0,4.78,0.84,6.43,2.53c1.65,1.69,2.48,3.91,2.48,6.68L236.8,41.03z M232.6,37.72
				c-0.28-0.93-0.82-1.69-1.64-2.28c-0.82-0.58-1.76-0.88-2.84-0.88c-1.17,0-2.2,0.33-3.08,0.98c-0.55,0.41-1.07,1.13-1.54,2.17
				H232.6z"/>
			<path class="st1" d="M250.43,33.79l-2.6,2.6c-1.06-1.05-2.01-1.57-2.88-1.57c-0.47,0-0.84,0.1-1.11,0.3
				c-0.27,0.2-0.4,0.45-0.4,0.75c0,0.23,0.08,0.43,0.25,0.62c0.17,0.19,0.59,0.45,1.25,0.78l1.54,0.77c1.62,0.8,2.73,1.61,3.34,2.44
				c0.6,0.83,0.91,1.8,0.91,2.92c0,1.49-0.55,2.73-1.64,3.72c-1.09,0.99-2.55,1.49-4.39,1.49c-1.82,0-3.36-0.53-4.63-1.58
				c-0.73-0.61-0.79-1.74-0.15-2.44l1.52-1.65c0.49,0.57,1.07,1.04,1.73,1.39c0.66,0.35,1.25,0.53,1.76,0.53c0.55,0,1-0.13,1.34-0.4
				c0.34-0.27,0.51-0.57,0.51-0.92c0-0.65-0.61-1.28-1.83-1.89l-1.41-0.71c-2.71-1.36-4.06-3.07-4.06-5.12
				c0-1.32,0.51-2.45,1.53-3.39c1.02-0.94,2.32-1.41,3.91-1.41c1.09,0,2.11,0.24,3.07,0.71C248.95,32.21,249.77,32.9,250.43,33.79z"
				/>
		</g>
	</g>
	<path class="st1" d="M279.62,98.02c0,0-0.05-16.58-1.35-18c0,0-3.23,16.24-4.99,16.25c-1.76,0.02-9.54-5.77-8.29-16.27
		c1.26-10.5,12.33-16.96,12.33-16.96s11.3,9.86,10.77,20.06S283.17,97.17,279.62,98.02z"/>
	<path class="st1" d="M273.35,108.22c0,0,12.84,9.6,14.7,9.42c0,0-10.67-11.93-9.66-13.3c1.01-1.37,10.01-4.02,17.4,3.05
		c7.39,7.07,5.95,19.39,5.95,19.39s-14.19,3-21.76-3.33S271.95,111.46,273.35,108.22z"/>
	<path class="st1" d="M295.28,95.94c0,0,13-9.27,13.39-11.09c0,0-14.56,6.51-15.55,5.13c-1-1.38-0.78-10.72,8.17-15.58
		s20.2,0.24,20.2,0.24s-1.46,14.37-9.76,19.64S297.93,98.25,295.28,95.94z"/>
	<path class="st1" d="M293.03,70.15c0,0,6.02-17.04,5.21-18.97c0,0-9.26,15.49-11.08,14.86c-1.82-0.63-7.69-9.42-2.55-19.74
		s18.87-12.9,18.87-12.9s7.99,14.26,3.71,24.53C302.93,68.2,296.99,70.57,293.03,70.15z"/>
	<path class="st1" d="M272.99,52.95c0,0-0.34-19.9-1.93-21.58c0,0-3.6,19.54-5.71,19.6c-2.12,0.05-11.56-6.77-10.23-19.39
		S269.64,11,269.64,11s13.73,11.65,13.27,23.89S277.24,51.86,272.99,52.95z"/>
</g>
</svg>
