<?xml version="1.0" encoding="utf-8"?>
<!-- Generator: Adobe Illustrator 24.1.3, SVG Export Plug-In . SVG Version: 6.00 Build 0)  -->
<svg version="1.1" id="Capa_1" xmlns="http://www.w3.org/2000/svg" xmlns:xlink="http://www.w3.org/1999/xlink" x="0px" y="0px"
	 viewBox="0 0 328 128" style="enable-background:new 0 0 328 128;" xml:space="preserve">
<style type="text/css">
	.st0{fill-rule:evenodd;clip-rule:evenodd;fill:#0F425E;}
	.st1{fill:#AB3C6B;}
	.st2{fill:#00BFCD;}
</style>
<g>
	<g>
		<g>
			<path class="st0" d="M56.74,87.6c0-4.92-1.99-9.2-5.91-12.87c-3.97-3.66-8.53-5.48-13.69-5.48c-5.59,0-10.36,1.82-14.31,5.48
				c-3.93,3.67-5.9,8.22-5.9,13.65c0,5.15,1.97,9.52,5.89,13.06c3.91,3.55,8.63,5.33,14.12,5.33c5.31,0,9.94-1.88,13.88-5.61
				C54.75,97.39,56.74,92.88,56.74,87.6L56.74,87.6z M56.74,103.74c-2.09,2.68-4.9,4.77-8.45,6.28c-3.59,1.5-7.42,2.27-11.51,2.27
				c-7.65,0-14.05-2.33-19.13-6.97C12.53,100.67,10,94.94,10,88.12c0-6.94,2.6-12.74,7.84-17.41c5.18-4.66,11.69-7,19.51-7
				c4.01,0,7.66,0.74,11.02,2.17c3.37,1.46,6.16,3.54,8.37,6.25v-4.87c0-0.95,0.96-2.54,2.86-2.54h0.79c1.87,0,2.9,1.52,2.9,2.56
				v41.24c0,0.93-1.35,2.56-2.9,2.56H59.6c-1.42,0-2.86-1.61-2.86-2.54V103.74L56.74,103.74z M76.69,64.73h0.79
				c1.67,0,2.87,1.7,2.87,2.56v2.71c2.06-2.1,4.44-3.65,7.15-4.67c2.69-1.03,5.79-1.52,9.26-1.52c3.81,0,7.25,0.65,10.23,1.9
				c2.99,1.28,5.35,3.07,7.08,5.43c1.19,1.65,2.07,3.59,2.58,5.84c0.54,2.22,0.79,5.53,0.79,9.89v21.69c0,1.01-1.39,2.54-2.86,2.54
				h-0.84c-1.47,0-2.88-1.52-2.88-2.54V85.13c0-5.48-1.16-9.44-3.52-11.92c-2.37-2.49-6.15-3.72-11.31-3.72
				c-3.04,0-5.72,0.56-8.02,1.64c-2.27,1.07-4.07,2.64-5.41,4.64c-0.82,1.27-1.4,2.71-1.73,4.34c-0.38,1.6-0.51,4.42-0.51,8.43
				v19.99c0,0.95-1.39,2.56-2.87,2.56h-0.76c-1.47,0-2.84-1.51-2.84-2.56V67.29C73.88,66.14,74.98,64.73,76.69,64.73L76.69,64.73z
				 M172.14,88.37c0-5.27-1.96-9.82-5.92-13.53c-3.92-3.72-8.54-5.6-13.85-5.6c-5.49,0-10.21,1.77-14.12,5.32
				c-3.92,3.58-5.91,7.91-5.91,13.04c0,5.43,2,9.97,5.93,13.63c3.92,3.7,8.7,5.54,14.28,5.54c5.18,0,9.74-1.84,13.68-5.54
				C170.18,97.56,172.14,93.29,172.14,88.37L172.14,88.37z M171.96,72.06V61.73v-9.46c0-1.39,1.39-2.55,2.86-2.55h1.02
				c1.52,0,2.86,1.05,2.86,2.55v56.28c0,0.93-1.35,2.54-2.86,2.54h-0.98c-1.51,0-2.9-1.59-2.9-2.54v-4.46
				c-2.35,2.57-5.24,4.6-8.73,6.04c-3.48,1.46-7.14,2.17-11.08,2.17c-7.49,0-13.83-2.34-18.98-7.08
				c-5.16-4.71-7.74-10.51-7.74-17.35c0-6.81,2.54-12.52,7.66-17.17c5.08-4.65,11.46-6.98,19.06-6.98c4.14,0,7.87,0.7,11.27,2.12
				C166.77,67.27,169.61,69.32,171.96,72.06L171.96,72.06z M233.35,87.6c0-4.92-1.99-9.2-5.91-12.87
				c-3.98-3.66-8.54-5.48-13.69-5.48c-5.61,0-10.36,1.82-14.29,5.48c-3.94,3.67-5.91,8.22-5.91,13.65c0,5.15,1.93,9.52,5.86,13.06
				c3.93,3.55,8.65,5.33,14.15,5.33c5.32,0,9.92-1.88,13.89-5.61C231.36,97.39,233.35,92.88,233.35,87.6L233.35,87.6z
				 M233.35,103.74c-2.08,2.68-4.91,4.77-8.46,6.28c-3.55,1.5-7.41,2.27-11.52,2.27c-7.66,0-14.05-2.33-19.12-6.97
				c-5.11-4.65-7.65-10.38-7.65-17.2c0-6.94,2.61-12.74,7.8-17.41c5.22-4.66,11.74-7,19.57-7c3.99,0,7.65,0.74,11.01,2.17
				c3.38,1.46,6.14,3.54,8.37,6.25v-4.83c0-1.5,1.43-2.58,2.83-2.58h0.88c1.79,0,2.81,1.03,2.81,2.52v41.27
				c0,1.44-1.32,2.56-2.85,2.56h-0.84c-1.35,0-2.83-1.06-2.83-2.53V103.74L233.35,103.74z M250.56,108.54V52.25
				c0-1.44,1.38-2.54,2.85-2.54h0.97c1.51,0,2.87,1.24,2.87,2.51v56.31c0,1.41-1.35,2.54-2.87,2.54h-0.95
				C251.92,111.08,250.56,109.81,250.56,108.54z"/>
		</g>
	</g>
	<g>
		<g>
			<path class="st1" d="M30.79,25.26l-0.96,0.91c-0.58,0.56-1.47,0.52-2.09,0c-1.85-1.57-3.88-2.36-6.09-2.36
				c-2.23,0-4.11,0.76-5.64,2.29c-1.53,1.53-2.29,3.41-2.29,5.64c0,1.56,0.34,2.94,1.01,4.15s1.63,2.16,2.87,2.85
				c1.24,0.69,2.61,1.03,4.12,1.03c1.29,0,2.47-0.24,3.54-0.72c0.78-0.35,1.61-0.91,2.5-1.68c0.6-0.52,1.5-0.45,2.05,0.12l0.91,0.95
				c0.59,0.61,0.57,1.62-0.07,2.17c-1.3,1.13-2.55,1.94-3.74,2.45c-1.53,0.65-3.29,0.98-5.25,0.98c-3.63,0-6.6-1.15-8.91-3.45
				c-2.31-2.3-3.47-5.25-3.47-8.85c0-2.33,0.53-4.4,1.58-6.21c1.05-1.81,2.56-3.26,4.52-4.36c1.96-1.1,4.08-1.65,6.34-1.65
				c1.93,0,3.78,0.41,5.56,1.22c1.27,0.58,2.42,1.33,3.44,2.26C31.4,23.6,31.45,24.64,30.79,25.26z"/>
			<path class="st1" d="M43.43,25.73c1.63,0,3.16,0.41,4.6,1.22c1.43,0.82,2.55,1.92,3.36,3.32c0.8,1.4,1.21,2.9,1.21,4.52
				c0,1.63-0.4,3.15-1.21,4.57c-0.81,1.42-1.91,2.53-3.31,3.33c-1.55,0.89-3.27,1.28-5.18,1.18c-1.97-0.1-3.89-0.9-5.36-2.22
				c-2.23-2.01-3.24-4.56-3.03-7.63c0.15-2.07,1.06-4.08,2.53-5.55C38.86,26.65,40.99,25.73,43.43,25.73z M43.5,29.81
				c-1.35,0-2.47,0.47-3.36,1.41c-0.9,0.94-1.34,2.14-1.34,3.6c0,1.5,0.44,2.72,1.33,3.65c0.88,0.93,2.01,1.4,3.36,1.4
				c1.36,0,2.49-0.47,3.39-1.41c0.9-0.94,1.35-2.15,1.35-3.63c0-1.48-0.44-2.69-1.33-3.61C46.01,30.28,44.88,29.81,43.5,29.81z"/>
			<path class="st1" d="M56.13,29.68c0-1.93,1.57-3.5,3.5-3.5h0.83v1.77c0.98-0.83,1.87-1.41,2.67-1.73
				c0.8-0.32,1.61-0.49,2.45-0.49c1.71,0,3.17,0.6,4.36,1.79c1,1.02,1.51,2.52,1.51,4.51v9.65c0,0.98-0.79,1.77-1.77,1.77h-0.75
				c-0.98,0-1.77-0.79-1.77-1.77v-5.79c0-2.06-0.09-3.43-0.28-4.11c-0.18-0.68-0.51-1.19-0.97-1.55c-0.46-0.35-1.03-0.53-1.7-0.53
				c-0.88,0-1.63,0.29-2.26,0.88c-0.63,0.59-1.06,1.4-1.31,2.44c-0.13,0.54-0.19,1.71-0.19,3.5v5.16c0,0.98-0.79,1.77-1.77,1.77
				h-0.8c-0.98,0-1.77-0.79-1.77-1.77V29.68z"/>
			<path class="st1" d="M86.21,28.59l-2.68,2.68c-1.09-1.08-2.08-1.62-2.97-1.62c-0.49,0-0.87,0.1-1.14,0.31
				c-0.27,0.21-0.41,0.46-0.41,0.77c0,0.23,0.09,0.45,0.26,0.64c0.17,0.2,0.61,0.46,1.29,0.8l1.59,0.79
				c1.67,0.83,2.82,1.67,3.45,2.52c0.62,0.86,0.94,1.86,0.94,3.02c0,1.54-0.56,2.82-1.69,3.84c-1.13,1.03-2.64,1.54-4.53,1.54
				c-0.55,0-1.07-0.05-1.57-0.14c-2.62-0.49-3.6-3.76-1.8-5.72h0c0.51,0.59,1.1,1.07,1.79,1.44c0.68,0.37,1.29,0.55,1.82,0.55
				c0.57,0,1.03-0.14,1.38-0.41c0.35-0.27,0.52-0.59,0.52-0.95c0-0.67-0.63-1.32-1.89-1.95l-1.46-0.73
				c-2.79-1.41-4.19-3.17-4.19-5.29c0-1.37,0.53-2.53,1.58-3.5c1.05-0.97,2.4-1.45,4.04-1.45c1.12,0,2.18,0.25,3.17,0.74
				C84.69,26.96,85.53,27.67,86.21,28.59z"/>
			<path class="st1" d="M92.27,19.81H93c0.99,0,1.8,0.81,1.8,1.8v4.57h2.57v3.73H94.8v11.74c0,0.99-0.81,1.8-1.8,1.8h-0.74
				c-0.99,0-1.8-0.81-1.8-1.8V29.91h-2.22v-3.73h2.22v-4.57C90.47,20.62,91.27,19.81,92.27,19.81z"/>
			<path class="st1" d="M117,36.07h-13.92c0.2,1.23,0.74,2.2,1.61,2.93c0.87,0.72,1.99,1.09,3.34,1.09c0.97,0,1.86-0.2,2.67-0.61
				c1.09-0.55,2.32-0.7,3.43-0.19l1.73,0.81c-0.91,1.29-2,2.25-3.27,2.87c-1.27,0.62-2.78,0.93-4.52,0.93
				c-2.71,0-4.92-0.85-6.62-2.56c-1.7-1.71-2.56-3.85-2.56-6.42c0-2.64,0.85-4.82,2.55-6.57c1.7-1.74,3.83-2.61,6.39-2.61
				c2.72,0,4.93,0.87,6.64,2.61c1.7,1.74,2.56,4.04,2.56,6.9L117,36.07z M112.66,32.66c-0.29-0.96-0.85-1.75-1.69-2.35
				c-0.84-0.6-1.82-0.91-2.93-0.91c-1.21,0-2.27,0.34-3.18,1.02c-0.57,0.42-1.1,1.17-1.59,2.24H112.66z"/>
			<path class="st1" d="M121.71,19.51h0.98c0.93,0,1.68,0.75,1.68,1.68v20.59c0,0.93-0.75,1.68-1.68,1.68h-0.98
				c-0.93,0-1.68-0.75-1.68-1.68V21.19C120.03,20.26,120.78,19.51,121.71,19.51z"/>
			<path class="st1" d="M141.05,26.18h0.59c2.07,0,3.74,1.67,3.74,3.74v9.79c0,2.07-1.67,3.74-3.74,3.74h-0.59v-1.83
				c-0.85,0.8-1.69,1.38-2.55,1.74c-0.85,0.35-1.77,0.53-2.77,0.53c-2.23,0-4.16-0.87-5.79-2.6c-1.63-1.73-2.44-3.88-2.44-6.45
				c0-2.67,0.79-4.85,2.36-6.56c1.58-1.7,3.49-2.56,5.74-2.56c1.04,0,2.01,0.2,2.92,0.59c0.91,0.39,1.75,0.98,2.52,1.76V26.18z
				 M136.49,29.74c-1.34,0-2.45,0.47-3.34,1.42c-0.89,0.95-1.33,2.16-1.33,3.64c0,1.49,0.45,2.72,1.35,3.68
				c0.9,0.96,2.01,1.45,3.33,1.45c1.36,0,2.49-0.47,3.39-1.42c0.9-0.95,1.34-2.19,1.34-3.72c0-1.5-0.45-2.72-1.34-3.65
				C139,30.2,137.86,29.74,136.49,29.74z"/>
			<path class="st1" d="M166.67,29.67l-3.61,1.98c-0.68-0.71-1.35-1.2-2.01-1.48c-0.66-0.28-1.44-0.41-2.33-0.41
				c-1.62,0-2.93,0.48-3.93,1.45c-1,0.97-1.5,2.21-1.5,3.72c0,1.47,0.48,2.67,1.45,3.6c0.96,0.93,2.23,1.39,3.8,1.39
				c1.94,0,3.45-0.66,4.53-1.99l3.42,2.34c-1.85,2.41-4.47,3.61-7.84,3.61c-3.04,0-5.42-0.9-7.14-2.7c-1.72-1.8-2.58-3.91-2.58-6.32
				c0-1.67,0.42-3.21,1.25-4.62c0.84-1.41,2-2.51,3.5-3.32c1.5-0.8,3.17-1.21,5.02-1.21c1.71,0,3.25,0.34,4.62,1.02
				C164.69,27.44,165.8,28.41,166.67,29.67z"/>
			<path class="st1" d="M172.27,19.07c0.76,0,1.41,0.28,1.95,0.83c0.54,0.55,0.82,1.22,0.82,2c0,0.77-0.27,1.43-0.81,1.98
				c-0.54,0.55-1.18,0.82-1.93,0.82c-0.77,0-1.43-0.28-1.97-0.83c-0.54-0.56-0.81-1.23-0.81-2.02c0-0.76,0.27-1.41,0.81-1.95
				S171.51,19.07,172.27,19.07z M171.62,26.18h1.3c0.84,0,1.52,0.68,1.52,1.52v14.23c0,0.84-0.68,1.52-1.52,1.52h-1.3
				c-0.84,0-1.52-0.68-1.52-1.52V27.7C170.1,26.86,170.78,26.18,171.62,26.18z"/>
			<path class="st1" d="M186.48,25.73c1.63,0,3.16,0.41,4.6,1.22c1.43,0.82,2.55,1.92,3.36,3.32c0.8,1.4,1.21,2.9,1.21,4.52
				c0,1.63-0.4,3.15-1.21,4.57c-0.81,1.42-1.91,2.53-3.31,3.33c-1.55,0.89-3.27,1.28-5.18,1.18c-1.97-0.1-3.89-0.9-5.36-2.22
				c-2.23-2.01-3.24-4.56-3.03-7.63c0.15-2.07,1.06-4.08,2.53-5.55C181.91,26.65,184.05,25.73,186.48,25.73z M186.55,29.81
				c-1.35,0-2.47,0.47-3.36,1.41c-0.9,0.94-1.34,2.14-1.34,3.6c0,1.5,0.44,2.72,1.33,3.65c0.88,0.93,2.01,1.4,3.36,1.4
				c1.36,0,2.49-0.47,3.39-1.41c0.9-0.94,1.35-2.15,1.35-3.63c0-1.48-0.44-2.69-1.33-3.61C189.06,30.28,187.93,29.81,186.55,29.81z"
				/>
			<path class="st1" d="M199.18,27.91c0-0.96,0.78-1.73,1.73-1.73h2.6v1.77c0.98-0.83,1.87-1.41,2.67-1.73
				c0.8-0.32,1.61-0.49,2.45-0.49c1.71,0,3.17,0.6,4.36,1.79c1,1.02,1.51,2.52,1.51,4.51v9.68c0,0.96-0.78,1.73-1.73,1.73h-0.82
				c-0.96,0-1.73-0.78-1.73-1.73v-5.83c0-2.06-0.09-3.43-0.28-4.11c-0.18-0.68-0.51-1.19-0.97-1.55c-0.46-0.35-1.03-0.53-1.7-0.53
				c-0.88,0-1.63,0.29-2.26,0.88c-0.63,0.59-1.06,1.4-1.31,2.44c-0.13,0.54-0.19,1.71-0.19,3.5v5.2c0,0.96-0.78,1.73-1.73,1.73
				h-0.87c-0.96,0-1.73-0.78-1.73-1.73V27.91z"/>
			<path class="st1" d="M236,36.07h-13.92c0.2,1.23,0.74,2.2,1.61,2.93c0.87,0.72,1.99,1.09,3.34,1.09c1.3,0,2.45-0.36,3.45-1.09
				c0.52-0.38,1.23-0.37,1.82-0.1l2.56,1.2c-0.91,1.29-2,2.25-3.27,2.87c-1.27,0.62-2.78,0.93-4.52,0.93
				c-2.71,0-4.92-0.85-6.62-2.56c-1.7-1.71-2.56-3.85-2.56-6.42c0-2.64,0.85-4.82,2.55-6.57c1.7-1.74,3.83-2.61,6.39-2.61
				c2.72,0,4.93,0.87,6.64,2.61c1.7,1.74,2.56,4.04,2.56,6.9L236,36.07z M231.67,32.66c-0.29-0.96-0.85-1.75-1.69-2.35
				c-0.84-0.6-1.82-0.91-2.93-0.91c-1.21,0-2.27,0.34-3.18,1.02c-0.57,0.42-1.1,1.17-1.59,2.24H231.67z"/>
			<path class="st1" d="M250.08,28.59l-2.68,2.68c-1.09-1.08-2.08-1.62-2.97-1.62c-0.49,0-0.87,0.1-1.14,0.31
				c-0.27,0.21-0.41,0.46-0.41,0.77c0,0.23,0.09,0.45,0.26,0.64c0.17,0.2,0.61,0.46,1.29,0.8l1.59,0.79
				c1.67,0.83,2.82,1.67,3.45,2.52c0.62,0.86,0.94,1.86,0.94,3.02c0,1.54-0.56,2.82-1.69,3.84c-1.13,1.03-2.64,1.54-4.53,1.54
				c-1.87,0-3.47-0.54-4.78-1.63c-0.76-0.63-0.82-1.79-0.15-2.52l1.56-1.7c0.51,0.59,1.1,1.07,1.79,1.44
				c0.68,0.37,1.29,0.55,1.82,0.55c0.57,0,1.03-0.14,1.38-0.41c0.35-0.27,0.52-0.59,0.52-0.95c0-0.67-0.63-1.32-1.89-1.95
				l-1.46-0.73c-2.79-1.41-4.19-3.17-4.19-5.29c0-1.37,0.53-2.53,1.58-3.5c1.05-0.97,2.4-1.45,4.04-1.45c1.12,0,2.18,0.25,3.17,0.74
				C248.55,26.96,249.39,27.67,250.08,28.59z"/>
		</g>
	</g>
	<path class="st1" d="M280.22,94.92c0,0-0.05-17.12-1.39-18.59c0,0-3.34,16.77-5.16,16.78c-1.82,0.02-9.86-5.96-8.56-16.8
		s12.74-17.52,12.74-17.52s11.67,10.19,11.12,20.71C288.43,90.04,283.88,94.04,280.22,94.92z"/>
	<path class="st2" d="M273.75,105.46c0,0,13.26,9.91,15.18,9.73c0,0-11.02-12.32-9.98-13.74c1.04-1.42,10.34-4.15,17.96,3.15
		s6.14,20.03,6.14,20.03s-14.65,3.1-22.48-3.44S272.3,108.8,273.75,105.46z"/>
	<path class="st2" d="M296.39,92.77c0,0,13.42-9.58,13.83-11.45c0,0-15.03,6.72-16.06,5.3c-1.03-1.42-0.81-11.07,8.43-16.09
		c9.24-5.02,20.86,0.25,20.86,0.25s-1.5,14.84-10.08,20.28C304.8,96.5,299.13,95.16,296.39,92.77z"/>
	<path class="st1" d="M294.07,66.14c0,0,6.22-17.59,5.38-19.59c0,0-9.56,15.99-11.44,15.34c-1.88-0.65-7.94-9.73-2.64-20.39
		c5.3-10.65,19.49-13.32,19.49-13.32s8.25,14.73,3.83,25.34C304.29,64.13,298.16,66.58,294.07,66.14z"/>
	<path class="st2" d="M273.38,48.38c0,0-0.35-20.55-1.99-22.29c0,0-3.71,20.18-5.9,20.24s-11.94-6.99-10.56-20.02
		s14.99-21.25,14.99-21.25s14.18,12.03,13.71,24.67C283.14,42.37,277.76,47.26,273.38,48.38z"/>
</g>
</svg>
