<?xml version="1.0" encoding="utf-8"?>
<!-- Generator: Adobe Illustrator 23.0.2, SVG Export Plug-In . SVG Version: 6.00 Build 0)  -->
<svg version="1.1" id="Capa_1" xmlns="http://www.w3.org/2000/svg" xmlns:xlink="http://www.w3.org/1999/xlink" x="0px" y="0px"
	 viewBox="0 0 469.3 469.3" style="enable-background:new 0 0 469.3 469.3;" xml:space="preserve">
<style type="text/css">
	.st0{fill:#FFFFFF;}
	.st1{fill:#2E4A7F;}
</style>
<circle class="st0" cx="234.6" cy="234.6" r="234.6"/>
<g>
	<g>
		<g>
			<path class="st1" d="M128.1,159.5h213c17.3,0,31.3-14,31.3-31.3s-14-31.4-31.3-31.4h-213c-17.3,0-31.3,14-31.3,31.3
				S110.9,159.5,128.1,159.5z"/>
			<path class="st1" d="M341.2,203.3h-213c-17.3,0-31.3,14.1-31.3,31.4c0,17.3,14,31.3,31.3,31.3h213c17.3,0,31.3-14,31.3-31.3
				S358.4,203.3,341.2,203.3z"/>
			<path class="st1" d="M341.2,309.9h-213c-17.3,0-31.3,14-31.3,31.3c0,17.3,14,31.3,31.3,31.3h213c17.3,0,31.3-14,31.3-31.3
				C372.5,323.9,358.4,309.9,341.2,309.9z"/>
		</g>
	</g>
</g>
</svg>
